<?xml version="1.0" standalone="no"?>
<!DOCTYPE svg PUBLIC "-//W3C//DTD SVG 20010904//EN"
 "http://www.w3.org/TR/2001/REC-SVG-20010904/DTD/svg10.dtd">
<svg version="1.0" xmlns="http://www.w3.org/2000/svg"
 width="1024.000000pt" height="1008.000000pt" viewBox="0 0 1024.000000 1008.000000"
 preserveAspectRatio="xMidYMid meet">

<g transform="translate(0.000000,1008.000000) scale(0.100000,-0.100000)"
fill="#000000" stroke="none">
<path d="M4710 7985 c-25 -8 -94 -23 -153 -36 -60 -12 -114 -28 -121 -35 -8
-7 -15 -54 -19 -116 -11 -171 -12 -173 -66 -194 -67 -25 -191 -88 -230 -118
-39 -29 -38 -30 -178 48 -56 31 -110 56 -120 56 -18 0 -88 -56 -202 -162 l-64
-60 43 -139 43 -138 -29 -36 c-16 -20 -61 -82 -99 -138 l-71 -102 -145 4 -146
3 -38 -98 c-21 -55 -54 -135 -72 -179 l-35 -80 30 -25 c127 -109 177 -156 176
-165 -1 -5 -11 -56 -23 -112 -11 -55 -21 -112 -21 -126 0 -14 -6 -32 -13 -39
-8 -7 -69 -26 -135 -42 -67 -16 -127 -35 -133 -42 -12 -14 -9 -387 2 -399 3
-3 62 -21 130 -40 68 -19 130 -38 138 -43 8 -4 24 -53 37 -107 12 -55 25 -111
28 -125 6 -22 -4 -34 -94 -110 -55 -47 -100 -93 -100 -102 0 -16 18 -61 107
-265 19 -46 41 -83 47 -83 6 0 47 4 91 9 44 5 106 12 137 15 l57 6 32 -47 c18
-27 57 -81 87 -121 l54 -73 -13 -52 c-6 -29 -25 -90 -41 -136 -15 -47 -28 -88
-28 -92 0 -3 56 -59 125 -124 102 -96 129 -116 148 -111 12 3 72 37 132 76 61
38 113 70 117 70 4 0 37 -18 73 -40 76 -47 218 -120 232 -120 5 0 17 -63 27
-140 14 -107 22 -143 35 -149 27 -15 271 -72 314 -74 l39 -2 67 119 67 120 65
-5 c35 -2 123 -3 195 -2 l132 2 32 -62 c81 -156 104 -188 125 -182 11 4 89 24
173 45 84 20 155 39 157 42 3 3 10 54 16 114 18 182 11 166 82 193 34 13 106
50 159 83 l97 59 33 -17 c18 -9 51 -29 73 -44 22 -15 68 -42 101 -60 l62 -33
126 118 c69 65 126 121 126 125 0 4 -18 66 -40 140 l-40 133 55 72 c30 40 69
96 86 124 18 28 33 51 35 51 1 0 64 -7 140 -15 77 -9 141 -12 146 -7 11 11
111 234 135 301 l18 52 -45 42 c-25 23 -70 63 -99 88 l-53 47 21 102 c12 57
21 113 21 125 0 27 17 35 164 74 59 16 112 33 117 38 5 5 12 95 15 200 l7 191
-89 26 c-49 15 -111 34 -139 44 l-50 17 -12 65 c-7 36 -20 100 -30 144 l-17
78 99 92 99 92 -28 80 c-16 43 -47 122 -70 174 l-42 95 -141 0 c-78 0 -143 2
-146 5 -3 3 -23 33 -44 67 -22 34 -63 93 -92 131 -28 38 -51 76 -51 84 0 9 16
67 35 129 19 63 35 122 35 131 0 14 -215 217 -254 240 -6 3 -58 -22 -116 -58
-162 -98 -138 -94 -232 -37 -46 27 -117 64 -159 82 l-77 33 -6 61 c-21 200
-28 228 -55 239 -34 14 -291 78 -313 78 -15 0 -58 -67 -129 -200 l-24 -44
-195 1 -195 1 -47 78 c-110 187 -94 173 -178 149z m117 -183 l66 -113 161 6
c89 4 192 2 229 -3 64 -8 69 -7 79 12 6 12 38 67 71 124 50 84 65 102 84 102
58 0 243 -56 243 -73 0 -39 34 -274 41 -283 4 -5 42 -25 83 -43 41 -18 121
-57 178 -87 l102 -54 128 75 128 75 92 -77 c124 -104 120 -98 96 -158 -11 -27
-33 -92 -49 -143 l-30 -92 33 -43 c18 -23 36 -44 40 -47 3 -3 40 -55 81 -115
85 -126 55 -114 259 -101 l117 7 15 -48 c8 -26 28 -81 45 -122 17 -41 31 -83
30 -95 0 -11 -3 -16 -5 -9 -4 8 -11 6 -25 -8 -22 -22 -25 -34 -6 -23 6 4 -1
-7 -18 -25 -28 -30 -53 -36 -47 -12 3 16 -3 14 -19 -6 -8 -10 -9 -14 -2 -10 6
4 14 3 18 -2 3 -5 -19 -29 -49 -53 -30 -24 -55 -50 -55 -58 -1 -8 10 -71 24
-140 13 -69 26 -144 27 -167 3 -40 4 -41 46 -47 24 -3 93 -22 153 -42 108 -36
109 -37 108 -68 0 -25 -2 -27 -8 -11 -8 20 -21 -93 -21 -181 0 -32 -4 -44 -17
-48 -10 -3 -72 -19 -137 -36 -66 -17 -121 -32 -124 -34 -28 -29 96 -8 237 39
29 9 54 15 57 12 11 -11 -280 -89 -301 -81 -8 4 -15 1 -15 -5 0 -6 5 -11 10
-11 13 0 6 -48 -27 -198 l-24 -113 23 -19 c13 -11 53 -43 90 -72 37 -29 65
-59 63 -65 -2 -7 -1 -12 3 -10 16 5 16 -11 1 -48 -9 -22 -29 -68 -43 -101 -14
-34 -26 -66 -26 -72 0 -29 -29 -33 -167 -24 -91 7 -144 7 -157 0 -13 -7 -21
-7 -26 2 -5 8 -9 7 -14 -6 -3 -9 -4 -19 -1 -22 3 -3 5 0 5 7 0 7 5 9 10 6 6
-4 0 -20 -15 -39 -14 -18 -25 -36 -25 -40 0 -13 -67 -76 -73 -70 -3 4 5 17 19
31 14 14 23 28 20 31 -3 3 -15 -7 -26 -21 -14 -17 -26 -24 -38 -20 -12 5 -11
1 5 -16 20 -22 21 -51 2 -51 -5 0 -9 -8 -9 -17 0 -15 -2 -16 -10 -3 -7 10 -10
11 -11 3 -3 -22 -4 -27 -18 -52 -10 -18 -10 -25 0 -35 9 -8 10 -8 4 2 -5 9 7
28 33 55 22 23 56 66 76 95 37 53 108 156 110 158 1 1 19 -2 41 -6 l40 -8 -36
-1 c-33 -1 -40 -6 -70 -53 -18 -29 -63 -91 -100 -138 -80 -103 -89 -119 -89
-162 0 -25 3 -29 10 -18 7 11 8 5 4 -20 -4 -23 -3 -31 4 -22 7 10 9 6 9 -15
-1 -15 6 -51 15 -80 16 -51 16 -52 -2 -41 -11 7 -22 29 -25 51 -6 31 -9 36
-21 26 -8 -6 -13 -21 -13 -33 1 -17 2 -18 6 -3 7 28 23 9 23 -28 0 -23 -6 -38
-18 -44 -20 -10 -48 1 -39 16 3 5 -3 9 -13 10 -11 1 -23 -3 -26 -9 -4 -6 -1
-9 6 -6 8 2 23 -5 34 -16 13 -13 16 -21 8 -24 -7 -2 -12 -10 -12 -18 0 -8 -8
-14 -17 -14 -17 -1 -17 -1 -1 -14 15 -11 13 -13 -17 -13 -20 0 -32 4 -28 10 4
6 1 7 -6 3 -7 -5 -10 -14 -7 -22 3 -8 0 -11 -10 -7 -8 3 -12 8 -10 11 8 8 -27
31 -47 32 -10 0 -20 7 -23 15 -4 8 -10 12 -15 9 -13 -8 -89 37 -82 49 3 6 1 7
-5 3 -6 -3 -13 -2 -17 3 -3 5 3 14 12 20 28 16 10 13 -24 -4 -17 -9 -37 -22
-44 -31 -7 -9 -44 -32 -83 -51 -59 -30 -73 -33 -89 -23 -16 10 -19 9 -15 -2 3
-7 -2 -20 -10 -28 -14 -13 -15 -12 -9 4 6 15 4 17 -10 11 -10 -4 -29 -9 -43
-11 -14 -2 -17 -1 -7 2 9 3 17 9 17 13 0 5 -36 -6 -80 -23 -44 -17 -73 -32
-65 -34 9 -2 12 -8 9 -14 -5 -7 2 -9 20 -6 30 6 46 -7 17 -15 -15 -4 -21 -25
-36 -143 -9 -77 -19 -144 -20 -150 -4 -14 -129 -47 -180 -48 -38 -1 -41 2 -67
49 -15 28 -30 58 -34 68 -3 9 -10 17 -14 17 -4 0 -11 11 -14 25 -4 14 -11 25
-16 25 -16 0 -12 -10 34 -84 24 -39 51 -85 59 -102 l16 -31 117 28 c65 16 119
27 122 25 9 -9 -237 -68 -250 -59 -5 2 -24 35 -44 71 -19 37 -47 87 -63 112
-18 29 -27 53 -24 68 6 25 17 24 -197 22 -74 0 -148 3 -165 8 -16 5 -50 6 -75
3 -40 -6 -43 -8 -25 -18 13 -7 96 -10 238 -9 119 0 217 -2 217 -6 0 -5 -105
-8 -233 -8 l-234 0 -57 -105 c-32 -58 -67 -115 -78 -127 -10 -13 -3 7 16 43
27 49 32 66 21 66 -8 0 -15 -6 -15 -13 0 -27 -42 -85 -59 -80 -9 2 -57 14
-108 26 l-92 22 -5 42 c-3 22 -8 79 -11 126 -6 78 -22 173 -24 141 -1 -7 -7
-11 -13 -8 -7 2 -24 7 -38 11 -23 6 -23 6 3 -9 16 -9 27 -19 24 -21 -7 -8
-158 61 -262 120 -55 31 -103 56 -106 56 -9 0 -128 -72 -200 -121 l-56 -38
-102 91 c-117 105 -112 82 -54 245 33 95 53 127 53 86 0 -9 3 -13 7 -9 10 9
13 36 4 36 -11 0 -54 62 -54 76 0 7 -4 11 -8 8 -10 -6 -31 31 -22 39 6 7 -20
52 -44 75 -23 24 -14 -4 12 -34 13 -15 22 -30 19 -33 -6 -6 -27 22 -81 111
l-47 77 -45 -3 c-26 -2 -31 -1 -13 1 17 2 32 8 32 13 0 7 -89 6 -217 -4 l-52
-4 -41 85 c-22 47 -41 96 -42 109 -1 14 -7 23 -13 20 -5 -2 -16 2 -22 10 -11
11 7 29 95 100 59 48 111 91 116 95 5 4 3 28 -4 56 -21 80 -48 228 -44 235 7
11 -38 35 -80 43 -21 3 -36 9 -32 12 3 3 26 0 52 -6 42 -11 65 -9 53 4 -3 2
-59 20 -126 39 -132 37 -167 52 -158 67 4 5 2 9 -2 9 -5 0 -8 17 -6 38 2 31 1
33 -6 12 -6 -18 -9 4 -12 75 -3 80 -1 103 11 113 18 16 190 71 246 78 l40 6
33 164 c18 91 31 175 29 188 -4 19 -1 23 11 19 13 -3 12 -2 -1 7 -10 6 -20 10
-24 10 -4 -1 -12 9 -18 21 -6 12 -18 25 -26 27 -11 4 -10 -1 4 -17 11 -11 17
-21 14 -21 -2 0 -15 12 -29 27 -13 14 -18 23 -11 19 6 -4 12 -3 12 3 0 13 -89
85 -97 78 -10 -11 -43 13 -43 31 0 17 43 138 77 215 9 20 21 38 27 38 6 1 74
0 152 -1 l140 -2 51 79 c27 44 77 113 111 154 l61 74 -33 105 c-18 58 -40 122
-49 144 -9 21 -14 42 -11 47 3 5 50 47 105 94 l99 86 32 -24 c28 -21 215 -127
224 -127 1 0 51 27 109 59 59 33 137 72 174 87 36 15 71 32 76 36 6 5 17 73
25 151 l16 142 62 22 c94 34 195 53 205 39 4 -6 37 -62 74 -124z m-432 -221
c-16 -14 -113 -43 -132 -39 -10 3 10 14 47 26 70 23 100 27 85 13z m1509 -6
c20 -8 36 -17 36 -20 0 -6 -63 16 -74 26 -14 13 -3 11 38 -6z m191 -103 c-6
-6 -75 27 -75 37 0 5 18 0 39 -12 22 -12 38 -23 36 -25z m-1870 18 c-8 -13
-105 -63 -112 -57 -5 6 110 76 116 71 1 -1 0 -8 -4 -14z m-1020 -1078 c-3 -3
-11 0 -18 7 -9 10 -8 11 6 5 10 -3 15 -9 12 -12z m-151 -862 c5 0 7 -2 4 -5
-7 -8 -97 15 -104 26 -2 4 17 2 43 -6 26 -8 52 -15 57 -15z m4017 -757 c-12
-20 -14 -14 -5 12 4 9 9 14 11 11 3 -2 0 -13 -6 -23z m-3662 -57 c-2 -2 -47
-6 -99 -8 -52 -3 -81 -2 -65 2 30 8 172 13 164 6z m3479 -3 c-10 -2 -28 -2
-40 0 -13 2 -5 4 17 4 22 1 32 -1 23 -4z m100 -10 c-10 -2 -26 -2 -35 0 -10 3
-2 5 17 5 19 0 27 -2 18 -5z m-453 -638 c-49 -46 -98 -87 -107 -90 -12 -4 -47
13 -100 47 -46 30 -102 65 -125 77 l-41 24 -30 -22 c-39 -28 -288 -148 -324
-157 -18 -4 -28 -2 -28 5 0 6 7 11 16 11 20 0 234 104 302 147 29 18 55 33 58
33 4 0 40 -20 81 -45 40 -25 76 -45 78 -45 3 0 27 -15 54 -34 47 -33 50 -34
72 -18 13 9 26 18 29 21 27 31 140 131 147 131 4 0 -32 -39 -82 -85z m20 65
c3 -6 -1 -7 -9 -4 -11 4 -16 0 -16 -12 0 -9 -3 -15 -6 -11 -9 8 3 37 15 37 5
0 13 -4 16 -10z m-105 -96 c0 -2 -9 -4 -21 -4 -11 0 -18 4 -14 10 5 8 35 3 35
-6z m-586 -33 c-1 -1 -12 3 -23 11 -12 8 -18 17 -15 21 6 5 43 -25 38 -32z
m33 23 c-3 -3 -12 -4 -19 -1 -8 3 -5 6 6 6 11 1 17 -2 13 -5z m-1417 -104 c0
-5 -2 -10 -4 -10 -3 0 -8 5 -11 10 -3 6 -1 10 4 10 6 0 11 -4 11 -10z m1297
-82 c-3 -8 -6 -5 -6 6 -1 11 2 17 5 13 3 -3 4 -12 1 -19z m-1290 -70 c-2 -13
-4 -5 -4 17 -1 22 1 32 4 23 2 -10 2 -28 0 -40z m17 -68 c4 -25 3 -31 -4 -20
-5 8 -10 26 -10 39 0 32 6 24 14 -19z m23 -56 c-3 -3 -12 -4 -19 -1 -8 3 -5 6
6 6 11 1 17 -2 13 -5z"/>
<path d="M5546 7701 c-13 -20 -37 -59 -55 -88 -46 -74 -52 -77 -108 -64 -57
14 -327 17 -466 6 -72 -5 -101 -4 -112 5 -8 7 -12 16 -9 21 3 5 0 8 -7 7 -7
-2 -29 26 -50 61 -49 83 -51 85 -92 77 -33 -6 -35 -10 -41 -54 -23 -162 -26
-170 -63 -192 -19 -11 -39 -18 -43 -15 -5 3 -41 -10 -79 -30 -39 -19 -76 -35
-82 -35 -13 0 -210 -119 -252 -152 l-27 -22 -63 32 c-34 18 -83 44 -109 58
-77 43 -84 20 -42 -138 l26 -99 -38 -48 c-22 -27 -64 -79 -95 -117 -60 -75
-105 -142 -163 -246 l-38 -68 -71 0 c-40 1 -91 5 -115 9 -39 8 -45 6 -59 -15
-8 -13 -13 -30 -10 -38 3 -8 42 -40 86 -71 45 -31 83 -60 86 -65 3 -5 -11 -69
-30 -142 -19 -73 -44 -202 -55 -287 -11 -85 -23 -157 -26 -160 -3 -3 -56 -22
-117 -41 -109 -35 -112 -36 -112 -65 0 -28 3 -30 115 -65 l115 -36 13 -69 c37
-200 54 -279 83 -373 17 -56 29 -108 26 -115 -2 -7 -44 -36 -91 -65 -90 -55
-106 -73 -89 -101 9 -13 32 -16 144 -16 l133 0 38 -69 c44 -80 119 -182 213
-290 l65 -74 -41 -111 c-40 -108 -41 -112 -24 -131 25 -27 43 -25 99 11 27 16
71 41 98 54 l49 24 67 -43 c103 -67 206 -120 337 -176 66 -29 121 -53 122 -54
1 -1 8 -47 14 -102 9 -77 16 -103 31 -116 11 -10 26 -18 34 -18 7 0 38 44 69
98 l55 99 83 -15 c104 -17 396 -19 500 -3 88 14 93 12 123 -46 51 -101 76
-133 100 -133 31 0 40 22 49 125 4 44 11 88 15 99 4 12 38 30 101 52 110 40
267 118 360 180 36 24 71 44 79 44 8 0 54 -22 102 -50 48 -27 94 -50 101 -50
8 0 21 8 31 19 16 17 14 25 -25 130 l-41 113 66 66 c78 80 157 187 218 297 25
44 49 79 54 78 5 0 64 -4 131 -8 l122 -8 12 27 c11 23 9 28 -15 47 -14 11 -24
25 -21 30 4 5 -2 6 -11 2 -13 -5 -15 -3 -9 7 5 9 4 11 -3 6 -6 -4 -29 5 -52
20 -44 29 -53 41 -17 24 21 -11 21 -11 2 4 -11 8 -26 20 -33 26 -7 6 -17 8
-22 5 -14 -9 -13 -2 19 99 30 95 62 239 81 366 6 41 14 78 18 82 4 3 58 23
120 43 103 33 112 38 112 61 0 28 -7 32 -132 69 -49 14 -88 30 -88 36 0 6 -4
8 -9 4 -5 -3 -12 21 -16 52 -19 177 -59 384 -92 481 -18 54 -15 57 89 124 43
27 78 56 78 63 0 8 -5 25 -12 39 l-11 26 -121 -5 -121 -5 -33 65 c-55 105
-145 235 -226 324 -54 59 -75 89 -70 100 4 9 20 58 35 110 30 98 28 121 -11
121 -10 0 -60 -22 -111 -49 l-92 -48 -89 58 c-109 71 -244 137 -358 174 -47
15 -86 28 -87 29 -1 1 -6 39 -13 86 -19 150 -18 148 -52 152 -26 4 -33 0 -52
-31z m-868 -110 c4 -36 -15 -68 -31 -52 -13 13 2 93 16 88 7 -2 13 -18 15 -36z
m917 -19 c-11 -11 -27 17 -20 35 6 16 8 16 16 -6 5 -13 7 -26 4 -29z m-271
-112 c269 -31 577 -147 795 -299 87 -60 114 -83 189 -161 337 -348 507 -803
489 -1309 -16 -460 -169 -831 -477 -1155 -257 -270 -702 -463 -1110 -483 -412
-19 -778 99 -1135 366 -110 82 -265 253 -349 386 -107 167 -204 411 -241 606
-42 223 -40 485 5 705 90 436 343 846 651 1053 308 208 589 298 934 300 88 0
200 -4 249 -9z m-1409 -230 c17 -18 23 -30 15 -30 -15 0 -60 39 -60 52 0 16
17 8 45 -22z m185 -34 c0 -2 -8 -10 -17 -17 -16 -13 -17 -12 -4 4 13 16 21 21
21 13z m-140 -119 c0 -2 -10 -12 -22 -23 l-23 -19 19 23 c18 21 26 27 26 19z
m-462 -539 c3 -15 -4 -18 -36 -18 -38 0 -69 19 -55 34 4 4 25 6 48 4 29 -2 41
-8 43 -20z m3351 13 c20 -13 4 -31 -29 -31 -26 0 -46 21 -33 34 9 9 46 7 62
-3z m-3514 -816 c0 -22 -31 -33 -48 -16 -7 7 -6 15 3 26 17 21 45 15 45 -10z
m3644 6 c17 -11 8 -27 -18 -34 -27 -7 -51 21 -30 34 18 11 30 11 48 0z m-3503
-760 c-3 -5 -15 -11 -26 -14 -17 -4 -19 -3 -9 9 12 15 44 20 35 5z m-11 -41
c-3 -5 -12 -10 -20 -10 -8 0 -17 5 -20 10 -4 6 5 10 20 10 15 0 24 -4 20 -10z
m3045 -264 c0 -2 -8 -10 -17 -17 -16 -13 -17 -12 -4 4 13 16 21 21 21 13z
m-40 -50 c0 -2 -8 -10 -17 -17 -16 -13 -17 -12 -4 4 13 16 21 21 21 13z
m-2486 -285 c-2 -3 -12 3 -22 13 -16 17 -16 18 5 5 12 -7 20 -15 17 -18z m691
-397 c13 -44 10 -64 -10 -64 -13 0 -25 42 -25 87 0 37 21 23 35 -23z m925 -40
c0 -14 -4 -22 -10 -19 -5 3 -10 17 -10 31 0 14 4 22 10 19 6 -3 10 -17 10 -31z"/>
<path d="M4988 7413 c-9 -2 -20 -13 -23 -23 -9 -27 -96 -43 -110 -20 -26 43
-329 -53 -525 -167 -149 -86 -203 -124 -289 -202 -131 -119 -298 -339 -383
-506 -92 -179 -158 -496 -158 -759 0 -162 58 -467 117 -614 27 -70 105 -216
128 -242 7 -8 29 -39 48 -68 137 -209 400 -425 662 -544 85 -38 263 -97 360
-119 45 -10 60 -10 63 -1 6 18 26 15 55 -8 23 -18 40 -20 176 -20 l151 0 32
30 33 29 -40 2 -40 1 49 10 c41 7 51 6 58 -6 5 -9 23 -16 41 -16 25 0 29 -3
17 -11 -48 -34 187 29 348 92 75 30 272 139 308 171 11 10 23 18 27 18 6 0 32
20 71 55 6 6 29 23 51 40 79 58 168 162 267 310 142 213 170 274 228 504 93
368 48 808 -120 1169 -30 65 -51 96 -68 105 -29 14 -113 133 -106 150 7 18
-143 184 -231 256 -43 35 -74 57 -70 50 4 -8 -7 0 -26 17 -112 103 -379 228
-592 279 -153 36 -435 58 -509 38z m402 -145 c224 -39 501 -168 671 -313 125
-106 255 -268 334 -415 l40 -75 72 -3 72 -3 25 -77 c30 -89 69 -247 88 -347
20 -105 16 -465 -5 -585 -22 -120 -61 -257 -98 -337 l-28 -63 -70 0 -71 0 -21
-42 c-76 -152 -159 -261 -284 -372 -159 -141 -286 -217 -495 -294 -183 -67
-285 -85 -490 -86 -263 0 -417 36 -660 158 -143 71 -265 157 -371 261 -109
107 -170 186 -222 292 l-41 82 -75 3 -76 3 -23 65 c-44 120 -90 324 -103 450
-26 276 12 595 99 823 l26 67 61 0 c34 0 68 6 77 13 8 6 36 52 62 100 103 192
268 368 465 494 76 49 296 148 384 172 220 61 425 70 657 29z m-1640 -2308
c-8 -5 -19 -10 -25 -10 -5 0 -3 5 5 10 8 5 20 10 25 10 6 0 3 -5 -5 -10z
m2648 -175 c-6 -14 -13 -23 -15 -21 -5 5 15 46 22 46 3 0 -1 -11 -7 -25z m-97
-124 c-44 -55 -176 -177 -230 -213 l-46 -29 40 35 c22 20 55 46 73 59 18 12
67 59 110 104 42 45 79 83 80 83 2 0 -10 -18 -27 -39z m-151 -85 c0 -2 -8 -10
-17 -17 -16 -13 -17 -12 -4 4 13 16 21 21 21 13z m-50 -42 c-8 -8 -23 -20 -34
-25 -13 -7 -9 -1 9 15 34 29 43 33 25 10z m-220 -199 c0 -6 -56 -35 -67 -35
-4 1 8 9 27 20 39 22 40 22 40 15z m-427 -122 c-7 -2 -19 -2 -25 0 -7 3 -2 5
12 5 14 0 19 -2 13 -5z m14 -39 c-3 -3 -12 -4 -19 -1 -8 3 -5 6 6 6 11 1 17
-2 13 -5z"/>
<path d="M5096 7007 c-22 -34 -66 -103 -98 -153 l-59 -92 -152 65 c-84 35
-158 67 -164 70 -7 3 -13 2 -13 -1 0 -9 30 -113 82 -284 l44 -142 400 -1 c315
0 400 3 406 13 4 7 25 74 47 148 66 222 80 274 78 277 -2 1 -74 -29 -160 -68
-87 -38 -162 -67 -167 -64 -6 4 -53 71 -106 151 -53 79 -97 144 -98 144 0 0
-19 -28 -40 -63z m129 -251 l77 -105 51 21 c29 11 74 29 101 39 27 11 51 18
53 15 3 -3 -7 -41 -22 -85 l-26 -80 -321 2 -320 2 -24 75 c-13 41 -21 76 -19
79 4 3 125 -38 186 -63 11 -5 36 20 94 99 43 58 82 105 86 105 4 0 42 -47 84
-104z"/>
<path d="M3801 5755 l-3 -535 136 0 136 0 2 328 3 327 28 -60 c15 -33 88 -179
161 -325 l133 -265 119 -3 119 -3 162 326 c88 179 163 321 165 316 1 -6 1
-153 -2 -326 l-5 -315 139 0 139 0 -6 508 c-4 279 -7 519 -7 535 l0 27 -162 0
-163 -1 -185 -374 c-102 -205 -188 -374 -191 -374 -3 -1 -91 168 -194 374
l-188 375 -166 0 -166 0 -4 -535z"/>
<path d="M5515 6266 c-53 -25 -111 -88 -99 -108 4 -7 3 -8 -4 -4 -27 16 -32
-53 -32 -409 l0 -363 33 -48 c19 -27 56 -62 82 -79 l48 -30 454 -3 453 -3 0
126 0 125 -405 0 -405 0 2 288 3 287 398 0 398 0 -2 123 -1 122 -436 0 -437 0
-50 -24z"/>
<path d="M6429 6755 c17 -33 31 -51 31 -40 0 6 -10 21 -21 35 -13 17 -17 18
-10 5z"/>
<path d="M6959 6364 c-23 -25 -23 -26 -2 -15 23 12 38 29 31 37 -3 2 -15 -8
-29 -22z"/>
<path d="M3311 5264 c0 -11 3 -14 6 -6 3 7 2 16 -1 19 -3 4 -6 -2 -5 -13z"/>
<path d="M7033 4838 c-4 -7 -8 -20 -10 -28 -1 -10 3 -9 13 4 14 19 18 36 10
36 -3 0 -8 -6 -13 -12z"/>
<path d="M6845 4779 c-4 -5 19 -9 56 -9 34 0 60 2 58 4 -11 9 -109 14 -114 5z"/>
<path d="M3540 4747 c0 -15 32 -77 39 -77 4 0 6 13 3 30 -2 16 -8 27 -13 25
-4 -3 -12 3 -18 12 -6 10 -11 14 -11 10z"/>
<path d="M6583 4668 c-15 -20 -25 -38 -20 -38 3 0 12 11 21 25 17 26 16 35 -1
13z"/>
<path d="M6519 4583 c-13 -16 -12 -17 4 -4 9 7 17 15 17 17 0 8 -8 3 -21 -13z"/>
<path d="M6539 4563 c-13 -16 -12 -17 4 -4 9 7 17 15 17 17 0 8 -8 3 -21 -13z"/>
<path d="M6480 4534 c0 -1 6 -7 14 -13 10 -9 15 -8 19 2 3 8 -3 13 -14 13 -11
0 -19 -1 -19 -2z"/>
<path d="M3700 4492 c0 -12 19 -26 26 -19 2 2 -2 10 -11 17 -9 8 -15 8 -15 2z"/>
<path d="M6410 4380 c0 -8 5 -22 10 -30 9 -13 10 -13 10 0 0 8 -5 22 -10 30
-9 13 -10 13 -10 0z"/>
<path d="M3683 4252 l-33 -87 39 -35 c63 -57 143 -125 154 -129 5 -2 6 6 3 17
-4 12 -1 26 9 36 22 21 7 21 -17 -1 -10 -9 -21 -13 -25 -9 -4 4 -1 12 7 17 12
8 10 9 -6 4 -16 -4 -34 5 -68 36 -26 23 -45 48 -42 55 3 8 0 11 -8 8 -8 -3
-17 0 -22 7 -4 7 -3 10 3 6 6 -4 10 6 11 24 0 16 8 52 17 80 28 84 12 63 -22
-29z"/>
<path d="M6450 4331 c0 -6 4 -13 10 -16 6 -3 7 1 4 9 -7 18 -14 21 -14 7z"/>
<path d="M6430 4325 c0 -5 5 -17 10 -25 5 -8 10 -10 10 -5 0 6 -5 17 -10 25
-5 8 -10 11 -10 5z"/>
<path d="M6451 4275 c1 -19 18 -51 18 -35 0 8 -4 22 -9 30 -5 8 -9 11 -9 5z"/>
<path d="M6159 4244 c-19 -14 -33 -30 -31 -35 1 -6 -2 -8 -7 -5 -8 5 -201 -90
-201 -100 0 -2 22 7 49 21 40 20 50 22 55 10 3 -10 0 -12 -12 -8 -13 5 -14 3
-6 -6 12 -13 40 -3 71 26 8 7 27 20 44 30 18 11 27 23 24 32 -5 12 -3 12 12 0
16 -13 17 -12 5 2 -11 14 -8 20 20 38 18 11 28 21 22 21 -5 0 -26 -12 -45 -26z
m-59 -59 c0 -2 -10 -9 -22 -15 -22 -11 -22 -10 -4 4 21 17 26 19 26 11z m-50
-35 c0 -5 -4 -10 -10 -10 -5 0 -10 5 -10 10 0 6 5 10 10 10 6 0 10 -4 10 -10z"/>
<path d="M3781 4214 c0 -11 3 -14 6 -6 3 7 2 16 -1 19 -3 4 -6 -2 -5 -13z"/>
<path d="M4023 4145 c-29 -19 -55 -35 -58 -35 -6 0 -66 -41 -75 -51 -3 -3 -13
-8 -22 -12 -10 -3 -18 -11 -18 -17 0 -12 17 -13 22 -1 3 11 112 80 176 113 23
12 42 26 42 30 0 14 -14 9 -67 -27z"/>
<path d="M4110 4154 c0 -11 119 -77 225 -124 28 -12 53 -24 58 -27 4 -2 7 -2
7 1 0 5 -76 48 -90 51 -10 3 -117 56 -157 79 -24 13 -43 23 -43 20z"/>
<path d="M5980 4110 c0 -6 -4 -8 -10 -5 -5 3 -10 1 -10 -4 0 -13 27 -14 35 -2
3 5 1 12 -5 16 -5 3 -10 1 -10 -5z"/>
<path d="M4808 3953 c7 -3 16 -2 19 1 4 3 -2 6 -13 5 -11 0 -14 -3 -6 -6z"/>
<path d="M5393 3943 c9 -2 23 -2 30 0 6 3 -1 5 -18 5 -16 0 -22 -2 -12 -5z"/>
<path d="M4772 3915 c-17 -37 -14 -45 4 -12 9 16 14 31 11 33 -2 2 -9 -7 -15
-21z"/>
<path d="M4953 3933 c9 -2 23 -2 30 0 6 3 -1 5 -18 5 -16 0 -22 -2 -12 -5z"/>
<path d="M5313 3933 c9 -2 23 -2 30 0 6 3 -1 5 -18 5 -16 0 -22 -2 -12 -5z"/>
<path d="M5108 3923 c23 -2 59 -2 80 0 20 2 1 4 -43 4 -44 0 -61 -2 -37 -4z"/>
<path d="M5108 3893 c6 -2 18 -2 25 0 6 3 1 5 -13 5 -14 0 -19 -2 -12 -5z"/>
<path d="M5328 3893 c7 -3 16 -2 19 1 4 3 -2 6 -13 5 -11 0 -14 -3 -6 -6z"/>
<path d="M5401 3868 c0 -9 -7 -18 -13 -21 -7 -2 -11 -7 -8 -10 11 -12 32 11
27 29 -4 15 -5 16 -6 2z"/>
<path d="M5465 3860 c3 -5 8 -10 11 -10 2 0 4 5 4 10 0 6 -5 10 -11 10 -5 0
-7 -4 -4 -10z"/>
<path d="M4845 3815 c-3 -11 -11 -30 -16 -42 -13 -33 -2 -28 16 8 9 17 14 36
12 42 -3 7 -8 3 -12 -8z"/>
<path d="M5651 3814 c0 -11 3 -14 6 -6 3 7 2 16 -1 19 -3 4 -6 -2 -5 -13z"/>
<path d="M4680 3772 c0 -5 7 -9 15 -9 8 0 12 4 9 9 -3 4 -9 8 -15 8 -5 0 -9
-4 -9 -8z"/>
<path d="M4640 3240 c-244 -39 -370 -192 -370 -447 0 -161 38 -262 135 -358
71 -72 133 -99 263 -116 124 -16 341 13 343 45 2 29 4 146 2 146 -1 0 -41 -9
-90 -21 -101 -24 -242 -23 -304 3 -96 41 -158 140 -166 268 -16 234 115 356
359 336 43 -4 106 -15 140 -26 35 -11 64 -20 66 -20 2 0 2 35 0 77 l-3 78 -64
17 c-78 21 -236 30 -311 18z"/>
<path d="M6980 2785 l0 -465 85 0 85 0 0 459 c0 409 -2 460 -16 465 -9 3 -47
6 -85 6 l-69 0 0 -465z"/>
<path d="M6540 2803 c1 -181 5 -348 9 -372 6 -28 20 -55 40 -75 31 -31 33 -31
146 -34 l115 -4 0 66 0 66 -29 0 c-47 0 -77 16 -89 47 -6 15 -12 105 -14 198
l-3 170 73 3 72 3 0 64 0 64 -82 3 -82 3 -18 63 -19 62 -59 0 -60 0 0 -327z"/>
<path d="M6058 3000 c-95 -15 -163 -60 -187 -123 -19 -49 -13 -146 10 -195 31
-64 81 -84 226 -91 69 -4 117 -11 125 -18 18 -19 15 -80 -5 -101 -35 -34 -217
-27 -320 13 -16 7 -18 1 -15 -66 l3 -74 55 -13 c87 -20 255 -19 318 2 69 23
126 78 141 133 15 54 5 129 -23 179 -34 61 -72 77 -209 85 -134 9 -157 19
-157 74 0 57 27 70 143 69 68 0 120 -6 156 -17 30 -9 56 -17 58 -17 2 0 3 31
3 68 l0 69 -52 11 c-76 17 -204 22 -270 12z"/>
<path d="M5253 2988 l-73 -10 0 -70 c0 -56 3 -69 14 -65 43 17 144 29 214 26
105 -5 136 -25 140 -92 l3 -47 -114 1 c-162 0 -221 -19 -274 -88 -24 -31 -28
-47 -31 -112 -4 -99 20 -144 93 -181 42 -21 64 -25 135 -25 75 0 93 4 145 30
l60 30 32 -32 c27 -29 38 -33 84 -33 l52 0 -6 248 c-4 136 -12 264 -18 285
-14 53 -62 102 -117 122 -58 21 -236 28 -339 13z m297 -427 c0 -52 -3 -62 -25
-79 -39 -31 -117 -46 -160 -32 -70 23 -88 98 -34 144 28 24 38 26 125 26 l94
0 0 -59z"/>
<path d="M7487 2986 c-139 -38 -215 -166 -205 -346 7 -111 34 -176 100 -235
73 -66 126 -80 283 -78 72 1 146 6 165 11 l35 8 0 64 c0 53 -3 64 -15 61 -8
-3 -72 -7 -141 -9 -111 -3 -132 -1 -172 16 -47 21 -71 48 -82 94 l-7 28 228 2
229 3 -1 80 c-1 129 -36 212 -112 266 -68 48 -201 63 -305 35z m199 -131 c32
-21 51 -52 59 -97 l7 -38 -152 0 -152 0 6 38 c15 80 78 127 160 118 27 -3 59
-12 72 -21z"/>
<path d="M3883 2793 l-143 -4 0 -35 c0 -28 13 -54 59 -117 80 -112 201 -297
201 -308 0 -5 47 -9 105 -9 58 0 105 3 105 6 0 8 -123 185 -207 297 -40 54
-73 102 -73 105 0 4 20 15 44 25 38 16 86 51 60 45 -5 -1 -73 -4 -151 -5z"/>
<path d="M3203 2783 l-73 -4 0 -229 0 -230 75 0 75 0 0 235 c0 129 -1 234 -2
233 -2 -1 -36 -4 -75 -5z"/>
<path d="M2330 2550 l0 -230 78 0 77 0 -3 227 -3 228 -74 3 -75 3 0 -231z"/>
<path d="M2570 2774 c0 -4 29 -82 64 -173 36 -91 74 -192 86 -223 l21 -58 70
0 c40 0 69 4 69 10 0 6 34 99 76 208 42 108 80 207 85 220 9 23 8 23 -62 20
l-70 -3 -44 -104 c-24 -57 -46 -106 -49 -109 -5 -4 -55 97 -94 191 -11 26 -15
27 -82 27 -38 0 -70 -3 -70 -6z"/>
<path d="M3470 2550 l0 -230 85 0 85 0 0 230 0 230 -85 0 -85 0 0 -230z"/>
</g>
</svg>
